<svg width="22" height="20" viewBox="0 0 22 20" fill="none" xmlns="http://www.w3.org/2000/svg">
<path d="M15 6.5C16.5913 6.5 18.1174 7.13214 19.2426 8.25736C20.3679 9.38258 21 10.9087 21 12.5V19.5H17V12.5C17 11.9696 16.7893 11.4609 16.4142 11.0858C16.0391 10.7107 15.5304 10.5 15 10.5C14.4696 10.5 13.9609 10.7107 13.5858 11.0858C13.2107 11.4609 13 11.9696 13 12.5V19.5H9V12.5C9 10.9087 9.63214 9.38258 10.7574 8.25736C11.8826 7.13214 13.4087 6.5 15 6.5V6.5Z" stroke="#2F89FC" stroke-linecap="round" stroke-linejoin="round"/>
<path d="M5 7.5H1V19.5H5V7.5Z" stroke="#2F89FC" stroke-linecap="round" stroke-linejoin="round"/>
<path d="M3 4.5C4.10457 4.5 5 3.60457 5 2.5C5 1.39543 4.10457 0.5 3 0.5C1.89543 0.5 1 1.39543 1 2.5C1 3.60457 1.89543 4.5 3 4.5Z" stroke="#2F89FC" stroke-linecap="round" stroke-linejoin="round"/>
</svg>
