<svg width="204" height="43" viewBox="0 0 204 43" fill="none" xmlns="http://www.w3.org/2000/svg">
<rect x="42.0001" y="30.8333" width="18.6667" height="18.6667" transform="rotate(-180 42.0001 30.8333)" fill="white"/>
<rect x="18.6667" y="42.5" width="18.6667" height="18.6667" transform="rotate(-180 18.6667 42.5)" fill="#36E2CA"/>
<rect x="18.6667" y="19.1667" width="18.6667" height="18.6667" transform="rotate(-180 18.6667 19.1667)" fill="#2F89FC"/>
<path d="M63.2798 31.5H58.6662L65.696 11.1364H71.2443L78.2642 31.5H73.6506L68.5497 15.7898H68.3906L63.2798 31.5ZM62.9915 23.4957H73.8892V26.8565H62.9915V23.4957ZM84.2251 31.5H79.6115L86.6413 11.1364H92.1896L99.2095 31.5H94.5959L89.495 15.7898H89.3359L84.2251 31.5ZM83.9368 23.4957H94.8345V26.8565H83.9368V23.4957ZM104.057 31.7585C103.401 31.7585 102.837 31.5265 102.366 31.0625C101.902 30.5919 101.67 30.0284 101.67 29.3722C101.67 28.7225 101.902 28.1657 102.366 27.7017C102.837 27.2377 103.401 27.0057 104.057 27.0057C104.693 27.0057 105.25 27.2377 105.727 27.7017C106.205 28.1657 106.443 28.7225 106.443 29.3722C106.443 29.8097 106.33 30.2107 106.105 30.5753C105.886 30.9332 105.598 31.2216 105.24 31.4403C104.882 31.6525 104.488 31.7585 104.057 31.7585ZM117.219 31.5H110V11.1364H117.279C119.327 11.1364 121.09 11.544 122.569 12.3594C124.047 13.1681 125.184 14.3314 125.979 15.8494C126.781 17.3674 127.182 19.1837 127.182 21.2983C127.182 23.4195 126.781 25.2424 125.979 26.767C125.184 28.2917 124.04 29.4616 122.549 30.277C121.064 31.0923 119.287 31.5 117.219 31.5ZM114.306 27.8111H117.04C118.313 27.8111 119.383 27.5857 120.252 27.1349C121.127 26.6776 121.783 25.9716 122.221 25.017C122.665 24.0559 122.887 22.8163 122.887 21.2983C122.887 19.7936 122.665 18.5639 122.221 17.6094C121.783 16.6548 121.13 15.9522 120.262 15.5014C119.393 15.0507 118.323 14.8253 117.05 14.8253H114.306V27.8111ZM137.252 31.7983C135.681 31.7983 134.329 31.4801 133.195 30.8438C132.068 30.2008 131.2 29.2926 130.59 28.1193C129.98 26.9394 129.675 25.544 129.675 23.9332C129.675 22.3622 129.98 20.9834 130.59 19.7969C131.2 18.6103 132.058 17.6856 133.165 17.0227C134.279 16.3598 135.585 16.0284 137.083 16.0284C138.091 16.0284 139.029 16.1908 139.897 16.5156C140.772 16.8338 141.534 17.3144 142.184 17.9574C142.84 18.6004 143.351 19.4091 143.715 20.3835C144.08 21.3513 144.262 22.4848 144.262 23.7841V24.9474H131.366V22.3224H140.275C140.275 21.7126 140.142 21.1723 139.877 20.7017C139.612 20.2311 139.244 19.8632 138.773 19.598C138.309 19.3262 137.769 19.1903 137.153 19.1903C136.51 19.1903 135.94 19.3395 135.442 19.6378C134.952 19.9295 134.567 20.3239 134.289 20.821C134.011 21.3116 133.868 21.8584 133.862 22.4616V24.9574C133.862 25.7131 134.001 26.366 134.279 26.9162C134.564 27.4664 134.965 27.8906 135.482 28.1889C135.999 28.4872 136.612 28.6364 137.322 28.6364C137.792 28.6364 138.223 28.5701 138.614 28.4375C139.005 28.3049 139.34 28.1061 139.619 27.8409C139.897 27.5758 140.109 27.2509 140.255 26.8665L144.173 27.125C143.974 28.0663 143.566 28.8883 142.95 29.5909C142.34 30.2869 141.551 30.8305 140.583 31.2216C139.622 31.6061 138.512 31.7983 137.252 31.7983ZM159.734 20.5824L155.856 20.821C155.79 20.4896 155.647 20.1913 155.428 19.9261C155.21 19.6544 154.921 19.4389 154.563 19.2798C154.212 19.1141 153.791 19.0312 153.3 19.0312C152.644 19.0312 152.091 19.1705 151.64 19.4489C151.189 19.7206 150.964 20.0852 150.964 20.5426C150.964 20.9072 151.11 21.2154 151.401 21.4673C151.693 21.7192 152.193 21.9214 152.903 22.0739L155.667 22.6307C157.152 22.9356 158.259 23.4261 158.988 24.1023C159.717 24.7784 160.082 25.6667 160.082 26.767C160.082 27.768 159.787 28.6463 159.197 29.402C158.613 30.1577 157.811 30.7476 156.79 31.1719C155.776 31.5895 154.606 31.7983 153.281 31.7983C151.259 31.7983 149.648 31.3774 148.448 30.5355C147.255 29.687 146.556 28.5336 146.35 27.0753L150.516 26.8565C150.642 27.473 150.947 27.9437 151.431 28.2685C151.915 28.5866 152.535 28.7457 153.29 28.7457C154.033 28.7457 154.629 28.6032 155.08 28.3182C155.538 28.0265 155.77 27.652 155.776 27.1946C155.77 26.8101 155.607 26.4953 155.289 26.25C154.971 25.9981 154.48 25.8059 153.817 25.6733L151.173 25.1463C149.681 24.848 148.571 24.331 147.842 23.5952C147.119 22.8594 146.758 21.9214 146.758 20.7812C146.758 19.8002 147.023 18.955 147.553 18.2457C148.09 17.5365 148.843 16.9896 149.81 16.6051C150.785 16.2206 151.925 16.0284 153.231 16.0284C155.16 16.0284 156.678 16.4361 157.785 17.2514C158.898 18.0668 159.548 19.1771 159.734 20.5824ZM162.749 31.5V16.2273H166.985V31.5H162.749ZM164.877 14.2585C164.247 14.2585 163.707 14.0497 163.256 13.6321C162.812 13.2079 162.59 12.7008 162.59 12.1108C162.59 11.5275 162.812 11.027 163.256 10.6094C163.707 10.1851 164.247 9.97301 164.877 9.97301C165.507 9.97301 166.043 10.1851 166.488 10.6094C166.938 11.027 167.164 11.5275 167.164 12.1108C167.164 12.7008 166.938 13.2079 166.488 13.6321C166.043 14.0497 165.507 14.2585 164.877 14.2585ZM177.259 37.5455C175.886 37.5455 174.71 37.3565 173.729 36.9787C172.754 36.6075 171.979 36.1004 171.402 35.4574C170.825 34.8144 170.451 34.0919 170.278 33.2898L174.196 32.7628C174.315 33.0677 174.504 33.3527 174.763 33.6179C175.021 33.883 175.363 34.0952 175.787 34.2543C176.218 34.42 176.741 34.5028 177.358 34.5028C178.279 34.5028 179.038 34.2775 179.635 33.8267C180.238 33.3826 180.54 32.6368 180.54 31.5895V28.7955H180.361C180.175 29.2197 179.897 29.6207 179.526 29.9986C179.154 30.3764 178.677 30.6847 178.094 30.9233C177.51 31.1619 176.814 31.2812 176.006 31.2812C174.859 31.2812 173.815 31.0161 172.874 30.4858C171.939 29.9489 171.193 29.1302 170.636 28.0298C170.086 26.9228 169.811 25.5241 169.811 23.8338C169.811 22.1037 170.093 20.6586 170.656 19.4986C171.22 18.3385 171.969 17.4702 172.903 16.8935C173.845 16.3168 174.875 16.0284 175.996 16.0284C176.851 16.0284 177.567 16.1742 178.143 16.4659C178.72 16.7509 179.184 17.1089 179.536 17.5398C179.893 17.964 180.169 18.3816 180.361 18.7926H180.52V16.2273H184.726V31.6491C184.726 32.9484 184.408 34.0355 183.771 34.9105C183.135 35.7855 182.253 36.4418 181.126 36.8793C180.006 37.3234 178.717 37.5455 177.259 37.5455ZM177.348 28.0994C178.031 28.0994 178.607 27.9304 179.078 27.5923C179.555 27.2476 179.92 26.7571 180.172 26.1207C180.43 25.4777 180.56 24.7088 180.56 23.8139C180.56 22.919 180.434 22.1435 180.182 21.4872C179.93 20.8243 179.565 20.3106 179.088 19.946C178.611 19.5814 178.031 19.3991 177.348 19.3991C176.652 19.3991 176.065 19.5881 175.588 19.9659C175.111 20.3371 174.75 20.8542 174.504 21.517C174.259 22.1799 174.136 22.9455 174.136 23.8139C174.136 24.6955 174.259 25.4579 174.504 26.1009C174.756 26.7372 175.117 27.2311 175.588 27.5824C176.065 27.9271 176.652 28.0994 177.348 28.0994ZM192.332 22.6705V31.5H188.097V16.2273H192.134V18.9219H192.312C192.651 18.0336 193.217 17.331 194.013 16.8139C194.808 16.2902 195.773 16.0284 196.906 16.0284C197.967 16.0284 198.892 16.2604 199.68 16.7244C200.469 17.1884 201.082 17.8513 201.52 18.7131C201.957 19.5682 202.176 20.589 202.176 21.7756V31.5H197.94V22.5312C197.947 21.5966 197.708 20.8674 197.224 20.3438C196.741 19.8134 196.074 19.5483 195.226 19.5483C194.656 19.5483 194.152 19.6709 193.714 19.9162C193.284 20.1615 192.946 20.5194 192.7 20.9901C192.462 21.4541 192.339 22.0142 192.332 22.6705Z" fill="white"/>
</svg>
